<svg xmlns="http://www.w3.org/2000/svg" viewBox="0 0 400 300" width="406" height="306" class="illustration styles_illustrationTablet__1DWOa"><g id="_332_online_shopping_outline" data-name="#332_online_shopping_outline"><rect x="117.57" y="72.86" width="164.86" height="128.77" rx="11.2" fill="#ff3f6c"></rect><path d="M271.23,202.63H128.77a12.22,12.22,0,0,1-12.2-12.2V84.06a12.21,12.21,0,0,1,12.2-12.2H271.23a12.21,12.21,0,0,1,12.2,12.2V190.43A12.22,12.22,0,0,1,271.23,202.63ZM128.77,73.86a10.2,10.2,0,0,0-10.2,10.2V190.43a10.21,10.21,0,0,0,10.2,10.2H271.23a10.21,10.21,0,0,0,10.2-10.2V84.06a10.2,10.2,0,0,0-10.2-10.2Z" fill="#093f68"></path><rect x="117.57" y="84.06" width="164.86" height="95.59" fill="#fff"></rect><path d="M282.43,180.64H117.57a1,1,0,0,1-1-1V84.06a1,1,0,0,1,1-1H282.43a1,1,0,0,1,1,1v95.58A1,1,0,0,1,282.43,180.64Zm-163.86-2H281.43V85.06H118.57Z" fill="#093f68"></path><rect x="129.74" y="129.97" width="53.38" height="41.95" rx="3.35" fill="#fff"></rect><path d="M179.77,172.92H133.09a4.35,4.35,0,0,1-4.35-4.35V133.33a4.36,4.36,0,0,1,4.35-4.36h46.68a4.36,4.36,0,0,1,4.35,4.36v35.24A4.35,4.35,0,0,1,179.77,172.92ZM133.09,131a2.36,2.36,0,0,0-2.35,2.36v35.24a2.35,2.35,0,0,0,2.35,2.35h46.68a2.35,2.35,0,0,0,2.35-2.35V133.33a2.36,2.36,0,0,0-2.35-2.36Z" fill="#dfeaef"></path><polygon points="230.08 219.29 169.92 219.29 178.62 201.63 221.38 201.63 230.08 219.29" fill="#093f68"></polygon><path d="M230.08,220.29H169.92a1,1,0,0,1-.85-.47,1,1,0,0,1,0-1l8.7-17.67a1,1,0,0,1,.9-.55h42.76a1,1,0,0,1,.9.55l8.7,17.67a1,1,0,0,1,0,1A1,1,0,0,1,230.08,220.29Zm-58.55-2h56.94l-7.71-15.66H179.24Z" fill="#093f68"></path><rect x="156.27" y="219.29" width="87.46" height="7.85" rx="3.66" fill="#ff3f6c"></rect><path d="M240.07,228.14H159.93a4.66,4.66,0,0,1-4.66-4.66V223a4.66,4.66,0,0,1,4.66-4.66h80.14a4.66,4.66,0,0,1,4.66,4.66v.53A4.66,4.66,0,0,1,240.07,228.14Zm-80.14-7.85a2.66,2.66,0,0,0-2.66,2.66v.53a2.66,2.66,0,0,0,2.66,2.66h80.14a2.66,2.66,0,0,0,2.66-2.66V223a2.66,2.66,0,0,0-2.66-2.66Z" fill="#093f68"></path><polygon points="132.33 107.42 105.26 107.42 117.83 83.8 141.31 83.8 132.33 107.42" fill="#f56132"></polygon><path d="M132.33,108.42H105.26a1,1,0,0,1-.86-.48,1,1,0,0,1,0-1L117,83.33a1,1,0,0,1,.88-.53h23.48a1,1,0,0,1,.82.43,1,1,0,0,1,.11.92l-9,23.63A1,1,0,0,1,132.33,108.42Zm-25.41-2h24.72l8.22-21.62H118.43Z" fill="#093f68"></path><path d="M105.26,107.42h27.07a0,0,0,0,1,0,0v2.43a13.53,13.53,0,0,1-13.53,13.53h0a13.53,13.53,0,0,1-13.53-13.53v-2.43A0,0,0,0,1,105.26,107.42Z" fill="#f56132"></path><path d="M118.79,124.39a14.55,14.55,0,0,1-14.53-14.53v-2.44a1,1,0,0,1,1-1h27.07a1,1,0,0,1,1,1v2.44A14.55,14.55,0,0,1,118.79,124.39Zm-12.53-16v1.44a12.54,12.54,0,0,0,25.07,0v-1.44Z" fill="#093f68"></path><polygon points="159.4 107.42 132.33 107.42 141.31 83.8 164.78 83.8 159.4 107.42" fill="#fff"></polygon><path d="M159.4,108.42H132.33a1,1,0,0,1-.82-.43,1,1,0,0,1-.12-.92l9-23.63a1,1,0,0,1,.94-.64h23.47a1,1,0,0,1,.79.38,1,1,0,0,1,.19.84l-5.39,23.63A1,1,0,0,1,159.4,108.42Zm-25.62-2H158.6l4.93-21.62H142Z" fill="#093f68"></path><path d="M132.33,107.42H159.4a0,0,0,0,1,0,0v2.43a13.53,13.53,0,0,1-13.53,13.53h0a13.53,13.53,0,0,1-13.53-13.53v-2.43A0,0,0,0,1,132.33,107.42Z" fill="#fff"></path><path d="M145.86,124.39a14.55,14.55,0,0,1-14.53-14.53v-2.44a1,1,0,0,1,1-1H159.4a1,1,0,0,1,1,1v2.44A14.55,14.55,0,0,1,145.86,124.39Zm-12.53-16v1.44a12.54,12.54,0,0,0,25.07,0v-1.44Z" fill="#093f68"></path><polygon points="186.47 107.42 159.4 107.42 164.78 83.8 188.26 83.8 186.47 107.42" fill="#f56132"></polygon><path d="M186.47,108.42H159.4a1,1,0,0,1-.78-.37,1,1,0,0,1-.2-.85l5.39-23.62a1,1,0,0,1,1-.78h23.48a1,1,0,0,1,.74.32,1,1,0,0,1,.26.76l-1.8,23.62A1,1,0,0,1,186.47,108.42Zm-25.82-2h24.89l1.64-21.62h-21.6Z" fill="#093f68"></path><path d="M159.4,107.42h27.07a0,0,0,0,1,0,0v2.43a13.53,13.53,0,0,1-13.53,13.53h0a13.53,13.53,0,0,1-13.53-13.53v-2.43a0,0,0,0,1,0,0Z" fill="#f56132"></path><path d="M172.93,124.39a14.55,14.55,0,0,1-14.53-14.53v-2.44a1,1,0,0,1,1-1h27.07a1,1,0,0,1,1,1v2.44A14.55,14.55,0,0,1,172.93,124.39Zm-12.53-16v1.44a12.54,12.54,0,0,0,25.07,0v-1.44Z" fill="#093f68"></path><polygon points="213.53 107.42 186.47 107.42 188.26 83.8 211.74 83.8 213.53 107.42" fill="#fff"></polygon><path d="M213.53,108.42H186.47a1,1,0,0,1-.74-.32,1,1,0,0,1-.26-.75l1.79-23.63a1,1,0,0,1,1-.92h23.48a1,1,0,0,1,1,.92l1.79,23.63a1,1,0,0,1-.26.75A1,1,0,0,1,213.53,108.42Zm-26-2h24.92L210.81,84.8H189.19Z" fill="#093f68"></path><path d="M186.47,107.42h27.07a0,0,0,0,1,0,0v2.43A13.53,13.53,0,0,1,200,123.39h0a13.53,13.53,0,0,1-13.53-13.53v-2.43a0,0,0,0,1,0,0Z" fill="#fff"></path><path d="M200,124.39a14.55,14.55,0,0,1-14.53-14.53v-2.44a1,1,0,0,1,1-1h27.06a1,1,0,0,1,1,1v2.44A14.55,14.55,0,0,1,200,124.39Zm-12.53-16v1.44a12.53,12.53,0,1,0,25.06,0v-1.44Z" fill="#093f68"></path><polygon points="240.6 107.42 213.53 107.42 211.74 83.8 235.22 83.8 240.6 107.42" fill="#f56132"></polygon><path d="M240.6,108.42H213.53a1,1,0,0,1-1-.92l-1.8-23.62a1,1,0,0,1,.26-.76,1,1,0,0,1,.74-.32h23.48a1,1,0,0,1,1,.78l5.39,23.62a1,1,0,0,1-.2.85A1,1,0,0,1,240.6,108.42Zm-26.14-2h24.89L234.42,84.8h-21.6Z" fill="#093f68"></path><path d="M213.53,107.42H240.6a0,0,0,0,1,0,0v2.43a13.53,13.53,0,0,1-13.53,13.53h0a13.53,13.53,0,0,1-13.53-13.53v-2.43A0,0,0,0,1,213.53,107.42Z" fill="#f56132"></path><path d="M227.07,124.39a14.55,14.55,0,0,1-14.54-14.53v-2.44a1,1,0,0,1,1-1H240.6a1,1,0,0,1,1,1v2.44A14.55,14.55,0,0,1,227.07,124.39Zm-12.54-16v1.44a12.54,12.54,0,0,0,25.07,0v-1.44Z" fill="#093f68"></path><polygon points="267.67 107.42 240.6 107.42 235.22 83.8 258.69 83.8 267.67 107.42" fill="#fff"></polygon><path d="M267.67,108.42H240.6a1,1,0,0,1-1-.77L234.24,84a1,1,0,0,1,.19-.84,1,1,0,0,1,.79-.38h23.47a1,1,0,0,1,.94.64l9,23.63a1,1,0,0,1-.12.92A1,1,0,0,1,267.67,108.42Zm-26.27-2h24.82L258,84.8H236.47Z" fill="#093f68"></path><path d="M240.6,107.42h27.07a0,0,0,0,1,0,0v2.43a13.53,13.53,0,0,1-13.53,13.53h0a13.53,13.53,0,0,1-13.53-13.53v-2.43A0,0,0,0,1,240.6,107.42Z" fill="#fff"></path><path d="M254.14,124.39a14.55,14.55,0,0,1-14.54-14.53v-2.44a1,1,0,0,1,1-1h27.07a1,1,0,0,1,1,1v2.44A14.55,14.55,0,0,1,254.14,124.39Zm-12.54-16v1.44a12.54,12.54,0,0,0,25.07,0v-1.44Z" fill="#093f68"></path><polygon points="294.74 107.42 267.67 107.42 258.69 83.8 282.17 83.8 294.74 107.42" fill="#f56132"></polygon><path d="M294.74,108.42H267.67a1,1,0,0,1-.93-.64l-9-23.63a1,1,0,0,1,.11-.92,1,1,0,0,1,.82-.43h23.48a1,1,0,0,1,.88.53L295.62,107a1,1,0,0,1,0,1A1,1,0,0,1,294.74,108.42Zm-26.38-2h24.72L281.57,84.8H260.14Z" fill="#093f68"></path><path d="M267.67,107.42h27.07a0,0,0,0,1,0,0v2.43a13.53,13.53,0,0,1-13.53,13.53h0a13.53,13.53,0,0,1-13.53-13.53v-2.43A0,0,0,0,1,267.67,107.42Z" fill="#f56132"></path><path d="M281.21,124.39a14.55,14.55,0,0,1-14.54-14.53v-2.44a1,1,0,0,1,1-1h27.07a1,1,0,0,1,1,1v2.44A14.55,14.55,0,0,1,281.21,124.39Zm-12.54-16v1.44a12.54,12.54,0,0,0,25.07,0v-1.44Z" fill="#093f68"></path><rect x="199.78" y="155.1" width="65.15" height="15.67" rx="7.84" fill="#ff3f6c"></rect><path d="M257.1,171.77H207.62a8.84,8.84,0,1,1,0-17.67H257.1a8.84,8.84,0,1,1,0,17.67ZM207.62,156.1a6.84,6.84,0,1,0,0,13.67H257.1a6.84,6.84,0,1,0,0-13.67Z" fill="#093f68"></path><path d="M264.94,132.85H201.32a1,1,0,0,1,0-2h63.62a1,1,0,0,1,0,2Z" fill="#dfeaef"></path><path d="M264.94,140.12H201.32a1,1,0,0,1,0-2h63.62a1,1,0,0,1,0,2Z" fill="#dfeaef"></path><path d="M249.6,147.38H201.32a1,1,0,0,1,0-2H249.6a1,1,0,1,1,0,2Z" fill="#dfeaef"></path><rect x="136.85" y="141.89" width="39.15" height="5.57" rx="2.66" fill="#fff"></rect><path d="M173.35,148.46H139.51a3.67,3.67,0,0,1-3.66-3.66v-.25a3.67,3.67,0,0,1,3.66-3.66h33.84a3.66,3.66,0,0,1,3.65,3.66v.25A3.66,3.66,0,0,1,173.35,148.46Zm-33.84-5.57a1.66,1.66,0,0,0-1.66,1.66v.25a1.66,1.66,0,0,0,1.66,1.66h33.84A1.65,1.65,0,0,0,175,144.8v-.25a1.65,1.65,0,0,0-1.65-1.66Z" fill="#dfeaef"></path><path d="M167.59,166.54H145.27a2.47,2.47,0,0,1-2.4-2.06l-3.23-17h33.58l-3.23,17A2.47,2.47,0,0,1,167.59,166.54Z" fill="#fff"></path><path d="M167.59,167.54H145.27a3.47,3.47,0,0,1-3.38-2.88l-3.23-17a1,1,0,0,1,1-1.19h33.58a1,1,0,0,1,1,1.19l-3.23,17A3.48,3.48,0,0,1,167.59,167.54Zm-26.74-19.08,3,15.83a1.48,1.48,0,0,0,1.42,1.25h22.32a1.49,1.49,0,0,0,1.42-1.25l3-15.83Z" fill="#dfeaef"></path><rect x="147.61" y="150.01" width="2.6" height="12.92" rx="1.3" fill="#dfeaef"></rect><rect x="155.13" y="150.01" width="2.6" height="12.92" rx="1.3" fill="#dfeaef"></rect><rect x="162.65" y="150.01" width="2.6" height="12.92" rx="1.3" fill="#dfeaef"></rect><path d="M141.48,145.67a1.35,1.35,0,0,1-1.1-.57,1.33,1.33,0,0,1,.33-1.85l12.61-8.81a1.34,1.34,0,0,1,1.53,2.19l-12.61,8.8A1.34,1.34,0,0,1,141.48,145.67Z" fill="#dfeaef"></path><path d="M171.38,145.67a1.33,1.33,0,0,0,.76-2.42l-12.6-8.81a1.34,1.34,0,0,0-1.53,2.19l12.61,8.8A1.34,1.34,0,0,0,171.38,145.67Z" fill="#dfeaef"></path><path d="M270.81,166.78l-18-3.82a1.09,1.09,0,0,0-1.3,1.3l3.82,18a1.1,1.1,0,0,0,1.85.55l3.71-3.71,9.48,9.48a1.85,1.85,0,0,0,2.61,0l4.19-4.19a1.85,1.85,0,0,0,0-2.61l-9.49-9.48,3.72-3.71A1.1,1.1,0,0,0,270.81,166.78Z" fill="#ffbc0e"></path><path d="M271.63,190.16a2.86,2.86,0,0,1-2-.83l-8.77-8.78-3,3a2.1,2.1,0,0,1-3.53-1.05l-3.82-18A2.1,2.1,0,0,1,253,162l18,3.82h0a2.1,2.1,0,0,1,1.57,1.46,2.06,2.06,0,0,1-.53,2.07l-3,3,8.77,8.78a2.84,2.84,0,0,1,0,4l-4.19,4.19A2.84,2.84,0,0,1,271.63,190.16Zm-10.78-12a1,1,0,0,1,.71.29l9.48,9.48a.84.84,0,0,0,1.19,0l4.19-4.19a.84.84,0,0,0,0-1.19l-9.48-9.48a1,1,0,0,1,0-1.42l3.71-3.71.16-1.14-.21,1-18-3.82-1.09.32,1-.21,3.82,18,.16,0,3.71-3.71A1,1,0,0,1,260.85,178.14Z" fill="#093f68"></path><path d="M200,196.49a5.64,5.64,0,1,1,5.64-5.63A5.64,5.64,0,0,1,200,196.49Zm0-9.27a3.64,3.64,0,1,0,3.64,3.64A3.64,3.64,0,0,0,200,187.22Z" fill="#093f68"></path></g></svg>